<svg xmlns="http://www.w3.org/2000/svg" fill="none" viewBox="0 0 25 25">
  <rect width="3.404" height="13.616" x="18.118" y="6.563" fill="currentColor" opacity=".5" rx=".6" transform="rotate(90 18.118 6.563)"/>
  <path fill="currentColor" fill-rule="evenodd" d="M13.965 11.214H5.102a.6.6 0 00-.6.6v2.204a.6.6 0 00.6.6h6.715a6.5 6.5 0 012.148-3.404zm-2.338 4.65H5.102a.6.6 0 00-.6.6v2.205a.6.6 0 00.6.6h7.278a6.48 6.48 0 01-.753-3.404zm2.532 3.405a4.997 4.997 0 01-1.029-3.404h4.388a.61.61 0 01.1.008v.341a.5.5 0 00.5.5v1.955a.6.6 0 01-.6.6h-3.359zm3.459-4.66a.599.599 0 01-.1.009h-4.139a5.003 5.003 0 014.293-3.384.6.6 0 01.446.58v.9a.5.5 0 00-.5.5v1.396z" clip-rule="evenodd" opacity=".5"/>
  <path fill="currentColor" d="M18.118 21.214a5 5 0 100-10 5 5 0 000 10zm-.5-8a.5.5 0 011 0v2.25a.25.25 0 00.25.25h1.25a.5.5 0 110 1h-2a.5.5 0 01-.5-.5v-3z"/>
</svg>
