<svg xmlns="http://www.w3.org/2000/svg" fill="none" viewBox="0 0 25 25">
  <path fill="currentColor" d="M18.996 19.013l-1.17-1.173a6.541 6.541 0 001.307-3.926c0-3.624-2.927-6.563-6.537-6.563s-6.538 2.939-6.538 6.563a6.54 6.54 0 001.307 3.926l-1.17 1.173a.47.47 0 000 .663l.66.663a.466.466 0 00.658.002l.003-.002 1.17-1.175a6.482 6.482 0 007.82 0l1.17 1.175a.466.466 0 00.658.002l.002-.002.66-.663a.47.47 0 000-.663zm-3.764-3.121l-.586.732a.47.47 0 01-.66.073l-1.889-1.512a1.172 1.172 0 01-.44-.915v-3.637a.469.469 0 01.47-.47h.937a.469.469 0 01.469.47v3.299l1.626 1.3a.47.47 0 01.073.66z" opacity=".5"/>
  <path fill="currentColor" d="M5.124 8.289c.002.533.157 1.054.447 1.502l4.258-3.562a2.783 2.783 0 00-1.903-.753A2.808 2.808 0 005.124 8.29zm10.035 6.943l-1.627-1.3v-3.3a.469.469 0 00-.468-.468h-.938a.469.469 0 00-.468.469v3.637a1.171 1.171 0 00.439.915l1.89 1.512a.472.472 0 00.659-.073l.586-.733a.468.468 0 00-.073-.659zm2.105-9.756c-.706 0-1.386.27-1.902.752L19.62 9.79c.289-.448.444-.969.446-1.501a2.808 2.808 0 00-2.802-2.813z"/>
</svg>
