<svg xmlns="http://www.w3.org/2000/svg" fill="none" viewBox="0 0 25 24">
  <path fill="currentColor" d="M10.544 6.942h2.791a.349.349 0 00.349-.349v-.349a1.744 1.744 0 00-3.488 0v.349a.349.349 0 00.348.349zM7.405 19.5a1.395 1.395 0 100-2.79 1.395 1.395 0 000 2.79z"/>
  <path fill="currentColor" d="M19.963 7.988h-9.419a.349.349 0 00-.348.35v.348a.349.349 0 01-.35.349h-2.03a1.419 1.419 0 00-1.248.774l-1.546 3.488a.649.649 0 00-.022.102l-.572.572a1.734 1.734 0 00-.511 1.234v2.55a.698.698 0 00.697.698.349.349 0 00.35-.348 2.442 2.442 0 014.883 0v.007a.349.349 0 00.349.35l4.186-.011a.349.349 0 00.348-.35 2.442 2.442 0 014.884 0 .35.35 0 00.35.35.698.698 0 00.697-.698v-9.07a.697.697 0 00-.698-.695zm-9.767 4.546a.348.348 0 01-.35.35h-2.58a.35.35 0 01-.32-.49l.776-1.754a.349.349 0 01.32-.21h1.805a.349.349 0 01.349.35v1.755zm7.325.338a.349.349 0 01-.349.349h-.697a.349.349 0 00-.35.349v.697a.349.349 0 01-.348.35h-.698a.348.348 0 01-.349-.35v-.697a.35.35 0 00-.348-.349h-.698a.349.349 0 01-.349-.349v-.698a.349.349 0 01.349-.348h.698a.348.348 0 00.348-.35v-.697a.349.349 0 01.35-.349h.697a.349.349 0 01.349.35v.697a.349.349 0 00.349.349h.697a.349.349 0 01.35.348v.698z" opacity=".5"/>
  <path fill="currentColor" d="M17.172 19.5a1.395 1.395 0 100-2.79 1.395 1.395 0 000 2.79z"/>
</svg>
