<svg xmlns="http://www.w3.org/2000/svg" fill="none" viewBox="0 0 25 25">
  <path fill="currentColor" d="M3.095 4.15c0-.221.18-.4.4-.4h1.316c.221 0 .4.179.4.4v17.6H3.095V4.15z"/>
  <path fill="currentColor" d="M20.695 19.634a.4.4 0 01.4.4v1.316a.4.4 0 01-.4.4h-17.6v-2.116h17.6z"/>
  <path fill="currentColor" d="M8.825 15.434c-.378.403-.751.06-1.154-.317-.403-.378-.683-.648-.306-1.051l3.75-4a1 1 0 011.38-.077l2.959 2.526L19.31 7.63c.342-.433.584-.123 1.018.219.448.354.894.587.552 1.02l-4.5 5.7a1 1 0 01-1.434.142l-3.024-2.58-3.097 3.303z" opacity=".5"/>
</svg>
