<svg xmlns="http://www.w3.org/2000/svg" fill="none" viewBox="0 0 25 24">
  <path fill="currentColor" d="M17.779 14.692a2.154 2.154 0 110 4.307 2.154 2.154 0 010-4.307zm-8.616 0a2.154 2.154 0 110 4.308 2.154 2.154 0 010-4.308z"/>
  <path fill="currentColor" d="M4.317 5h1.616a2.156 2.156 0 012.154 2.154v2.154H21.01a6.442 6.442 0 01-1.913 4.588 3.232 3.232 0 00-4.364 1.87 6.703 6.703 0 01-.185.003h-2.154c-.062 0-.123 0-.185-.002a3.233 3.233 0 00-4.364-1.87 6.443 6.443 0 01-1.912-4.59V7.155H4.317a.538.538 0 01-.538-.539V5.538A.538.538 0 014.317 5z" opacity=".5"/>
  <path fill="currentColor" d="M8.09 7.484h1.688c1.008 0 1.825.817 1.825 1.825H8.091V7.484z"/>
</svg>
