<svg xmlns="http://www.w3.org/2000/svg" fill="none" viewBox="0 0 25 24">
  <path fill="currentColor" d="M19.19 12.786a3.051 3.051 0 00-2.312 1.07.204.204 0 01-.234.055l-1.414-.589a.206.206 0 01-.122-.23.204.204 0 01.04-.085 7.573 7.573 0 011.81-1.722 14.058 14.058 0 014.146-1.847c.315-.083.587-.283.76-.558.173-.276.235-.607.173-.927a1.284 1.284 0 00-1.42-1.03c-.848.106-1.748.283-2.7.468-.332.065-.667.129-1.004.192a.206.206 0 00-.105.054l-.006.006-3.054 2.438c-.364.29-.815.448-1.28.449h-.541a2.058 2.058 0 01-1.762-1l-.824-1.387a.2.2 0 01-.019-.164l.235-.737a.82.82 0 01.79-.603h1.262a.82.82 0 000-1.639h-1.262a2.45 2.45 0 00-2.345 1.712l-.632 1.99a.205.205 0 01-.239.139c-3.095-.672-4.365 1.363-4.422 1.46a.813.813 0 00.276 1.109.8.8 0 00.428.121.832.832 0 00.697-.38c.082-.124.746-1.044 2.473-.75a.204.204 0 01.172.177c.003.029 0 .059-.008.087l-.375 1.165a.206.206 0 01-.218.141.614.614 0 00-.078-.005 3.517 3.517 0 101.936.603.206.206 0 01-.082-.233l.318-.998a.205.205 0 01.342-.082 9.59 9.59 0 011.331 1.93c.574.993 1.066 1.852 1.892 1.852h.41a2.48 2.48 0 001.513-.459.204.204 0 01.199-.022l2.073.864a.204.204 0 01.125.215c-.01.073-.016.148-.017.222a3.072 3.072 0 103.074-3.072zM6.076 17.294a1.84 1.84 0 01-.663-3.558.204.204 0 01.272.14.205.205 0 01-.003.113l-.384 1.212a.82.82 0 101.562.498l.388-1.216a.205.205 0 01.365-.052 1.846 1.846 0 01-1.537 2.863zm13.114 0A1.432 1.432 0 0118 16.659a.205.205 0 01.246-.303l.624.26a.82.82 0 00.631-1.513l-.627-.26a.204.204 0 01.04-.39 1.434 1.434 0 11.275 2.842z" opacity=".5"/>
  <path fill="currentColor" d="M10.252 8.105a.208.208 0 000 .212l.472.795a1.236 1.236 0 001.057.6h.54c.28 0 .551-.094.77-.268l1.398-1.12a.205.205 0 00-.15-.364 16.47 16.47 0 01-1.851.114c-.82 0-1.495-.027-2.045-.066a.207.207 0 00-.191.097z"/>
</svg>
