<svg xmlns="http://www.w3.org/2000/svg" fill="none" viewBox="0 0 25 25">
  <path fill="currentColor" d="M10.45 8.705c.06-.124.122-.246.186-.366.356-4.31-2.833-5.564-2.87-5.577a.375.375 0 00-.45.158 6.43 6.43 0 00-.273 5.25 5.051 5.051 0 013.407.535z"/>
  <path fill="currentColor" d="M17.607 18.525a13.485 13.485 0 00-2.498-4.854c-.1-.124-1.016-1.275-1.118-1.226.92-.47 3.22-1.716 4.237-2.901a23.12 23.12 0 003.435-5.346.375.375 0 00-.345-.525c-5.325 0-8.526 2.025-10.314 6.556a14.691 14.691 0 00-1.702-.783 3.325 3.325 0 00-3.402.486 2.25 2.25 0 00-1.923.912.57.57 0 00.113.78.575.575 0 00.789-.109 1.2 1.2 0 01.78-.464c2.686 4.65 6.875 7.695 10.921 7.977.095.37.242 1.2.246 1.228a.563.563 0 001.113-.162c-.003-.026-.196-1.078-.332-1.569z" opacity=".5"/>
</svg>
