<svg xmlns="http://www.w3.org/2000/svg" fill="none" viewBox="0 0 25 25">
  <path fill="currentColor" d="M4.278 7.526V8.74h15.75V7.526a1.313 1.313 0 00-1.313-1.312H5.59a1.313 1.313 0 00-1.312 1.312z"/>
  <path fill="currentColor" fill-rule="evenodd" d="M4.278 10.412v7.513a1.312 1.312 0 001.312 1.312h13.125a1.312 1.312 0 001.313-1.312v-7.513H4.278zm8.808 5.538h.193a1.504 1.504 0 011.428 1.037c.075.232-.122.465-.366.465H9.964c-.244 0-.44-.235-.365-.465a1.503 1.503 0 011.428-1.037h.192a2.415 2.415 0 001.867 0zm-.1-1.003a1.5 1.5 0 11-1.667-2.496 1.5 1.5 0 011.668 2.496z" clip-rule="evenodd" opacity=".4"/>
</svg>
