<svg xmlns="http://www.w3.org/2000/svg" fill="none" viewBox="0 0 25 25">
  <path fill="currentColor" d="M11.583 7.66a.188.188 0 00-.087-.184c-.947-.59-3.097-1.521-7.241-1.575a.375.375 0 00-.38.375v11.823a.375.375 0 00.37.375c3.862.05 5.995.863 7.038 1.45a.185.185 0 00.254-.07.188.188 0 00.025-.093V7.895c.002-.079.01-.157.021-.234zM17.562 16.145a.563.563 0 01-.468.554 6.314 6.314 0 00-3.219 1.693 6.004 6.004 0 00-.77 1.072.188.188 0 00.246.26 15.744 15.744 0 016.654-1.25.375.375 0 00.37-.375V6.276a.375.375 0 00-.38-.375c-.836.01-1.586.059-2.266.132a.188.188 0 00-.167.186v9.926z" opacity=".5"/>
  <path fill="currentColor" d="M16.3 15.735a.188.188 0 00.137-.18V4.36a.188.188 0 00-.252-.176 5.759 5.759 0 00-2.31 1.458 4.09 4.09 0 00-1.188 2.26v9.64a.187.187 0 00.329.123l.017-.019a6.992 6.992 0 013.268-1.912z"/>
</svg>
