<svg xmlns="http://www.w3.org/2000/svg" fill="none" viewBox="0 0 25 25">
  <path fill="currentColor" d="M15.905 8.195H8.467a3.719 3.719 0 017.438 0z"/>
  <path fill="currentColor" fill-rule="evenodd" d="M19.568 15.101c.58 0 1.069-.454 1.085-1.032a1.062 1.062 0 00-1.063-1.093h-1.86v-1.95l1.55-1.548a1.064 1.064 0 00-1.504-1.503l-1.814 1.814h-7.62L6.53 7.975a1.063 1.063 0 00-1.503 1.503l1.549 1.548v1.95h-1.86a1.063 1.063 0 00-1.062 1.093c.016.578.505 1.032 1.085 1.032h1.837v.531c-.001.702.153 1.395.451 2.03l-2 2a1.062 1.062 0 101.503 1.503l1.817-1.817a4.762 4.762 0 003.01 1.066h1.604a4.761 4.761 0 003-1.066l1.816 1.817a1.063 1.063 0 101.503-1.503l-2-2a4.762 4.762 0 00.452-2.03v-.53h1.837z" clip-rule="evenodd" opacity=".5"/>
</svg>
