<svg xmlns="http://www.w3.org/2000/svg" fill="none" viewBox="0 0 25 25">
  <path fill="currentColor" d="M15.988 13.957a3.094 3.094 0 11-6.188 0 3.094 3.094 0 016.188 0z"/>
  <path fill="currentColor" d="M20.207 7.207h-3.094l-.436-1.156A1.685 1.685 0 0015.1 4.957h-4.412a1.685 1.685 0 00-1.579 1.094l-.432 1.156H5.582a1.687 1.687 0 00-1.688 1.688V19.02a1.687 1.687 0 001.688 1.687h14.625a1.687 1.687 0 001.688-1.687V8.895a1.687 1.687 0 00-1.688-1.688zm-7.313 10.97a4.219 4.219 0 110-8.439 4.219 4.219 0 010 8.438z" opacity=".5"/>
</svg>
