<svg xmlns="http://www.w3.org/2000/svg" fill="none" viewBox="0 0 110 25">
  <path fill="currentColor" d="M19.513 10.528a1.375 1.375 0 01-1.292-.847l-.8-1.999a4.04 4.04 0 00-3.744-2.538H9.015a2.692 2.692 0 00-2.64 2.165l-.384 1.927a1.615 1.615 0 01-1.583 1.292H2.941A2.692 2.692 0 00.25 13.221v2.154a1.616 1.616 0 001.306 1.585.27.27 0 00.323-.242 3.23 3.23 0 016.44.012.277.277 0 00.268.259h7.02a.278.278 0 00.27-.26 3.231 3.231 0 013.22-2.97 3.293 3.293 0 013.24 2.945.27.27 0 00.107.2.263.263 0 00.216.05 1.615 1.615 0 001.282-1.58v-.382a4.467 4.467 0 00-4.428-4.464zm-2.806-.08a.178.178 0 01-.148.08H13.71a1.615 1.615 0 01-1.615-1.615V7.298a.538.538 0 01.538-.539h1.044a2.412 2.412 0 012.25 1.523l.799 1.999a.178.178 0 01-.018.17v-.002z" opacity=".5"/>
  <path fill="currentColor" d="M5.096 19.144a2.154 2.154 0 100-4.308 2.154 2.154 0 000 4.308zM19.094 19.144a2.154 2.154 0 100-4.308 2.154 2.154 0 000 4.308z"/>
  <path fill="currentColor" fill-rule="evenodd" d="M100.763 5.793h-3.569v3.404h3.569V5.793zm.859 3.404h3.564a.6.6 0 00.6-.6V6.393a.6.6 0 00-.6-.6h-3.564v3.404zm-8.851-3.404h3.565v3.404H92.77a.6.6 0 01-.6-.6V6.393a.6.6 0 01.6-.6z" clip-rule="evenodd"/>
  <path fill="currentColor" fill-rule="evenodd" d="M98.805 15.093h-3.568v3.404h3.569v-3.404zm.86 3.404h3.564a.6.6 0 00.6-.6v-2.204a.6.6 0 00-.6-.6h-3.565v3.404zm-8.852-3.404h3.565v3.404h-3.564a.6.6 0 01-.6-.6v-2.204a.6.6 0 01.6-.6zM98.805 10.442h-3.568v3.404h3.569v-3.404zm.86 3.404h3.564a.6.6 0 00.6-.6v-2.204a.6.6 0 00-.6-.6h-3.565v3.404zm-8.852-3.404h3.565v3.404h-3.564a.6.6 0 01-.6-.6v-2.204a.6.6 0 01.6-.6z" clip-rule="evenodd" opacity=".5"/>
</svg>
