<svg xmlns="http://www.w3.org/2000/svg" fill="none" viewBox="0 0 25 25">
  <path fill="currentColor" d="M21.547 16.431l-3.394-1.455v6h3.5a.5.5 0 00.5-.5v-3.125a1 1 0 00-.606-.92zm-19.394.92v3.125a.5.5 0 00.5.5h3.5v-6l-3.394 1.455a1 1 0 00-.606.92z"/>
  <path fill="currentColor" fill-rule="evenodd" d="M15.153 8.183v3.594l1.514.909a1 1 0 01.486.856v7.434h-3v-3a2 2 0 10-4 0v3h-3v-7.434a1 1 0 01.485-.857l1.515-.909V8.182a1 1 0 01.293-.706l2.353-2.353a.5.5 0 01.707 0l2.354 2.353a1 1 0 01.293.707zm-1.62 2.544a.1.1 0 01.1.1v.771a.1.1 0 01-.1.1h-.895v1.842a.1.1 0 01-.1.1h-.77a.1.1 0 01-.1-.1v-1.842h-.897a.1.1 0 01-.1-.1v-.771a.1.1 0 01.1-.1h.896v-.871a.1.1 0 01.1-.1h.771a.1.1 0 01.1.1v.87h.896z" clip-rule="evenodd" opacity=".5"/>
</svg>
