<svg xmlns="http://www.w3.org/2000/svg" fill="none" viewBox="0 0 25 24">
  <g fill="currentColor" clip-path="url(#clip0)">
    <path fill-rule="evenodd" d="M12.289 4a7.49 7.49 0 017.35 6.04c2.6.18 4.65 2.32 4.65 4.96 0 2.76-2.24 5-5 5h-3.443v-2.232h1.208c2.194 0 3.313-2.658 1.749-4.222l-4.767-4.767-.006-.006a2.476 2.476 0 00-3.485 0l-4.774 4.774a2.474 2.474 0 001.747 4.22h1.21V20h-2.44c-3.31 0-6-2.69-6-6 0-3.09 2.34-5.64 5.35-5.96A7.496 7.496 0 0112.289 4z" clip-rule="evenodd" opacity=".5"/>
    <path d="M17.054 16.018h-2.957v5.065a.723.723 0 01-.724.723h-2.17a.724.724 0 01-.724-.723v-5.065H7.52a.723.723 0 01-.511-1.235l4.767-4.766a.726.726 0 011.022 0l4.766 4.766a.723.723 0 01-.51 1.235z"/>
  </g>
  <defs>
    <clipPath id="clip0">
      <path fill="#fff" d="M0 0h24v24H0z" transform="translate(.289)"/>
    </clipPath>
  </defs>
</svg>
