<svg xmlns="http://www.w3.org/2000/svg" fill="none" viewBox="0 0 25 25">
  <path fill="currentColor" fill-rule="evenodd" d="M7.125 4.416a1 1 0 00-1 1v4.83a4.056 4.056 0 016.09 1.706 3.11 3.11 0 012.018 2.914c0 1.725-1.4 3.125-3.125 3.125H6.233c-.036 0-.072 0-.108-.002v2.427a1 1 0 001 1h10.75a1 1 0 001-1V8.58a.5.5 0 00-.148-.355L15.025 4.56a.5.5 0 00-.352-.145H7.125z" clip-rule="evenodd" opacity=".5"/>
  <path fill="currentColor" d="M11.24 13.006a2.809 2.809 0 00-5.25-.75 2.248 2.248 0 00.243 4.485h4.875c1.035 0 1.875-.84 1.875-1.875 0-.99-.769-1.793-1.744-1.86z"/>
</svg>
