<svg xmlns="http://www.w3.org/2000/svg" fill="none" viewBox="0 0 25 25">
  <g fill="currentColor" clip-path="url(#clip0)">
    <path fill-rule="evenodd" d="M12.153 4.402a7.49 7.49 0 017.35 6.04c2.6.18 4.65 2.32 4.65 4.96 0 2.76-2.24 5-5 5h-1.97l1.492-1.49a2.473 2.473 0 00-1.747-4.221h-1.211v-3.316a2.474 2.474 0 00-2.474-2.473h-2.17a2.474 2.474 0 00-2.474 2.474v3.315H7.392c-2.194 0-3.314 2.657-1.749 4.222l1.49 1.489h-.98c-3.31 0-6-2.69-6-6 0-3.09 2.34-5.64 5.35-5.96a7.496 7.496 0 016.65-4.04z" clip-rule="evenodd" opacity=".5"/>
    <path d="M7.391 16.44h2.958v-5.065a.724.724 0 01.724-.723h2.17a.724.724 0 01.724.724v5.065h2.958a.724.724 0 01.51 1.234l-4.766 4.767a.726.726 0 01-1.022 0L6.88 17.675a.723.723 0 01.511-1.235z"/>
  </g>
  <defs>
    <clipPath id="clip0">
      <path fill="#fff" d="M0 0h24v24H0z" transform="translate(.153 .402)"/>
    </clipPath>
  </defs>
</svg>
