<svg xmlns="http://www.w3.org/2000/svg" fill="none" viewBox="0 0 25 24">
  <path fill="currentColor" d="M21.406 11.992a4.583 4.583 0 01-4.53-4.579 4.582 4.582 0 01-4.58-4.53 4.728 4.728 0 00-2.857.458L6.963 4.603a4.74 4.74 0 00-2.07 2.07L3.636 9.141a4.751 4.751 0 00-.46 2.901l.433 2.733c.157.99.623 1.905 1.331 2.615l1.962 1.961a4.732 4.732 0 002.605 1.328l2.748.435a4.725 4.725 0 002.884-.457l2.477-1.261a4.74 4.74 0 002.07-2.071l1.257-2.468a4.75 4.75 0 00.463-2.865z" opacity=".5"/>
  <circle cx="10.365" cy="9.096" r="1.55" fill="currentColor"/>
  <circle cx="9.378" cy="15.251" r="1.55" fill="currentColor"/>
  <circle cx="16.096" cy="14.922" r="1.55" fill="currentColor"/>
</svg>
