<svg xmlns="http://www.w3.org/2000/svg" fill="none" viewBox="0 0 25 24">
  <path fill="currentColor" fill-rule="evenodd" d="M4.067 2.772a1.5 1.5 0 00-1.5 1.5v12a1.5 1.5 0 001.5 1.5h7.608a6.614 6.614 0 017.777-7.9v-5.6a1.5 1.5 0 00-1.5-1.5H4.067zm15.385 8.913a4.85 4.85 0 00-5.955 6.087h4.455a1.5 1.5 0 001.5-1.5v-4.587z" clip-rule="evenodd" opacity=".5"/>
  <rect width="8.374" height="2.148" x="8.611" y="4.829" fill="#fff" rx=".4"/>
  <rect width="2.257" height="2.148" x="4.655" y="4.829" fill="#fff" rx=".4"/>
  <circle cx="18.136" cy="16.354" r="4.874" fill="currentColor"/>
  <path fill="#fff" d="M21.288 15.086l-3.058-1.214a.255.255 0 00-.188 0l-3.058 1.214a.254.254 0 00-.16.242v1.595a.255.255 0 10.51 0v-1.06a.127.127 0 01.169-.12l2.548.9a.25.25 0 00.17 0l3.057-1.08a.256.256 0 00.01-.477z"/>
  <path fill="#fff" d="M19.799 16.727l-1.493.527a.51.51 0 01-.34 0l-1.493-.527a.256.256 0 00-.34.24v1.095a.254.254 0 00.171.24l1.311.463c.337.119.705.119 1.041 0l1.312-.463a.255.255 0 00.17-.24v-1.095a.254.254 0 00-.22-.252.256.256 0 00-.12.012z"/>
</svg>
