<svg xmlns="http://www.w3.org/2000/svg" fill="none" viewBox="0 0 25 24">
  <path fill="currentColor" fill-rule="evenodd" d="M5.032 6.2a1.2 1.2 0 011.2-1.2h4.353v3.21l1.184-.617 1.185.617V5h4.353a1.2 1.2 0 011.2 1.2v3.422a3.611 3.611 0 00-5.445 4.571 3.675 3.675 0 00-2.052 3.297v.566c0 .143.013.283.037.419H6.232a1.2 1.2 0 01-1.2-1.2V6.2zm13.291 9.111c.063.018.124.038.184.061v1.903a1.2 1.2 0 01-1.2 1.2h-4.79a.94.94 0 01-.098-.419v-.566a2.266 2.266 0 012.265-2.265h.163c.41.197.862.315 1.345.315h.002c.466-.002.928-.11 1.346-.315h.163c.215 0 .423.03.62.086zm-.45-1.491a2.202 2.202 0 10-1.683.776h.004a2.197 2.197 0 001.678-.776z" clip-rule="evenodd" opacity=".5"/>
  <path fill="currentColor" d="M17.703 15.225h-.163c-.418.205-.88.313-1.346.315-.484 0-.936-.118-1.347-.315h-.163a2.265 2.265 0 00-2.265 2.265v.566c0 .521.423.944.944.944h5.662c.52 0 .943-.423.943-.944v-.566a2.265 2.265 0 00-2.265-2.265zm-1.51-.629a2.2 2.2 0 100-4.403 2.202 2.202 0 00-.001 4.403h.002z"/>
</svg>
