<svg xmlns="http://www.w3.org/2000/svg" fill="none" viewBox="0 0 25 25">
  <path fill="currentColor" d="M17.332 7.606v1.428c0 1.26-3.135 2.286-7 2.286s-7-1.027-7-2.286V7.606c0-1.26 3.135-2.286 7-2.286s7 1.027 7 2.286z" opacity=".5"/>
  <path fill="currentColor" fill-rule="evenodd" d="M17.332 17.035V15.82a5.719 5.719 0 01-1.01.542 2.497 2.497 0 001.01.673zm-1.536-1.573c.961-.392 1.536-.889 1.536-1.428v-1.712a2.501 2.501 0 00-1.536 3.14zm-.451-3.754a4.087 4.087 0 00-1.274 2.97c0 .435.067.853.193 1.247-1.121.249-2.475.395-3.932.395-3.865 0-7-1.027-7-2.286V10.82c1.504 1.036 4.257 1.518 7 1.518 1.782 0 3.568-.204 5.013-.63zm-3.057 9.521a20.7 20.7 0 01-1.956.091c-3.865 0-7-1.027-7-2.286V15.82c1.504 1.036 4.257 1.518 7 1.518 1.31 0 2.622-.11 3.8-.338a4.168 4.168 0 00-1.847 3.464v.643c0 .04.001.082.003.122zm5.044-3.085v.89c0 .837-1.384 1.57-3.447 1.97v-.54a2.573 2.573 0 012.571-2.571h.186c.22.105.45.19.69.251z" clip-rule="evenodd" opacity=".5"/>
  <path fill="currentColor" d="M19.885 17.893H19.7c-.476.232-1 .354-1.53.357-.548 0-1.062-.134-1.528-.357h-.186a2.572 2.572 0 00-2.571 2.571v.643c0 .591.48 1.071 1.072 1.071h6.428c.591 0 1.071-.48 1.071-1.071v-.643a2.572 2.572 0 00-2.571-2.571zm-1.714-.715a2.5 2.5 0 10.004-5 2.5 2.5 0 00-.006 5h.002z"/>
</svg>
