<svg xmlns="http://www.w3.org/2000/svg" fill="none" viewBox="0 0 25 25">
  <path fill="currentColor" d="M21.462 5.689v1.786c0 1.573-3.92 2.857-8.75 2.857-4.831 0-8.75-1.284-8.75-2.857V5.689c0-1.574 3.919-2.857 8.75-2.857 4.83 0 8.75 1.284 8.75 2.857z"/>
  <path fill="currentColor" fill-rule="evenodd" d="M3.962 19.975v-4.018c1.081.745 2.68 1.26 4.496 1.564l-.207.208-.002.001a1.86 1.86 0 001.314 3.172h.334v1.587c0 .064.003.129.01.192-3.456-.382-5.945-1.452-5.945-2.706zm10.928 2.767c3.778-.317 6.572-1.439 6.572-2.767v-4.018c-1.188.817-2.997 1.359-5.033 1.647l.125.125c1.176 1.176.334 3.174-1.314 3.174h-.332v1.586c0 .085-.006.17-.018.253zm.391-6.286c3.578-.36 6.18-1.449 6.18-2.731V9.707c-1.88 1.294-5.32 1.897-8.75 1.897-3.429 0-6.87-.603-8.75-1.897v4.018c0 1.215 2.337 2.257 5.625 2.669l1.507-1.507a1.86 1.86 0 012.619 0l.005.005 1.564 1.564z" clip-rule="evenodd" opacity=".5"/>
  <path fill="currentColor" d="M15.582 19.74H13.61v3.377a.482.482 0 01-.482.482H11.68a.482.482 0 01-.482-.482V19.74H9.226a.482.482 0 01-.34-.823l3.177-3.177a.484.484 0 01.682 0l3.177 3.177a.482.482 0 01-.34.823z"/>
</svg>
