<svg xmlns="http://www.w3.org/2000/svg" fill="none" viewBox="0 0 25 25">
  <path fill="currentColor" d="M9.362 10.462l5.467-5.467a1.534 1.534 0 012.169 0l5.467 5.467a1.533 1.533 0 010 2.168l-5.467 5.467a1.533 1.533 0 01-2.169 0L9.363 12.63a1.534 1.534 0 010-2.168zm10.552 1.834a.75.75 0 100-1.5.75.75 0 000 1.5zm-4 4a.75.75 0 100-1.5.75.75 0 000 1.5zm0-4a.75.75 0 100-1.5.75.75 0 000 1.5zm0-4a.75.75 0 100-1.5.75.75 0 000 1.5zm-4 4a.75.75 0 100-1.5.75.75 0 000 1.5z" opacity=".5"/>
  <path fill="currentColor" d="M4.414 10.546h3.71a2.534 2.534 0 00.532 2.791l4.258 4.258v1.45a1.5 1.5 0 01-1.5 1.5h-7a1.5 1.5 0 01-1.5-1.5v-7a1.5 1.5 0 011.5-1.5zm3.5 5.75a.75.75 0 100-1.5.75.75 0 000 1.5zm12-5.5a.75.75 0 110 1.498.75.75 0 010-1.498zm-8 1.5a.75.75 0 110-1.501.75.75 0 010 1.5zm4 2.5a.75.75 0 110 1.5.75.75 0 010-1.5zm0-8a.75.75 0 110 1.5.75.75 0 010-1.5zm0 4a.75.75 0 110 1.498.75.75 0 010-1.498z"/>
</svg>
