<svg xmlns="http://www.w3.org/2000/svg" fill="none" viewBox="0 0 25 24">
  <path fill="currentColor" d="M15.856 8.25a3.75 3.75 0 10-7.501 0 3.75 3.75 0 007.5 0zm-6.094 7.107v-2.42H9.48c-.22 0-.44.019-.657.055v2.365a1.64 1.64 0 10.938 0zm-.469 2.268a.704.704 0 110-1.407.704.704 0 010 1.407zm5.62-2.508v-2.175a3.653 3.653 0 00-.182-.005h-.49a5.696 5.696 0 01-.26.112v2.062c-.826.22-1.407 1.011-1.407 1.893v.855c0 .124.05.243.138.331l.302.302a.234.234 0 00.33 0l.332-.33a.234.234 0 000-.332l-.167-.167v-.741a.94.94 0 011.096-.926c.46.076.779.51.779.976v.691l-.167.167a.235.235 0 000 .331l.331.331a.235.235 0 00.331 0l.302-.302a.471.471 0 00.137-.33v-.938a1.869 1.869 0 00-1.406-1.805z" opacity=".5"/>
  <path fill="currentColor" d="M14.912 12.942v2.175a1.869 1.869 0 011.407 1.805v.937a.47.47 0 01-.138.331l-.302.302a.234.234 0 01-.33 0l-.332-.33a.234.234 0 010-.332l.167-.167v-.691c0-.466-.32-.9-.78-.976a.942.942 0 00-1.095.926v.741l.167.167a.234.234 0 010 .331l-.331.331a.234.234 0 01-.331 0l-.302-.302a.47.47 0 01-.138-.33v-.856c0-.882.58-1.673 1.407-1.893v-2.063a5.097 5.097 0 01-4.011-.11h-.208v2.42a1.64 1.64 0 11-.938 0v-2.366a3.94 3.94 0 00-3.28 3.883v1.219A1.406 1.406 0 006.948 19.5h10.313a1.406 1.406 0 001.406-1.406v-1.219a3.939 3.939 0 00-3.756-3.933zm-6.322 3.98a.703.703 0 101.406 0 .703.703 0 00-1.406 0z"/>
</svg>
