<svg xmlns="http://www.w3.org/2000/svg" fill="none" viewBox="0 0 25 25">
  <path fill="currentColor" fill-rule="evenodd" d="M5.153 4.644a1.5 1.5 0 00-1.5 1.5v12a1.5 1.5 0 001.5 1.5h7.607a6.614 6.614 0 017.777-7.9v-5.6a1.5 1.5 0 00-1.5-1.5H5.153zm15.384 8.913a4.85 4.85 0 00-5.955 6.087h4.455a1.5 1.5 0 001.5-1.5v-4.587z" clip-rule="evenodd" opacity=".5"/>
  <rect width="8.374" height="2.148" x="9.696" y="6.701" fill="#fff" rx=".4"/>
  <rect width="2.257" height="2.148" x="5.741" y="6.701" fill="#fff" rx=".4"/>
  <circle cx="19.221" cy="18.226" r="4.874" fill="currentColor"/>
  <path fill="#fff" d="M16.648 20.976a.18.18 0 00.067-.013l1.276-.51a.188.188 0 00.061-.04l2.819-2.817a.18.18 0 000-.256l-.766-.766a.185.185 0 00-.255 0l-2.819 2.818a.18.18 0 00-.04.061l-.51 1.276a.18.18 0 00.167.247zM21.126 17.084a.18.18 0 00.255 0l.383-.383a.722.722 0 000-1.02.74.74 0 00-1.02 0l-.383.383a.18.18 0 000 .255l.765.765z"/>
</svg>
