<svg xmlns="http://www.w3.org/2000/svg" fill="none" viewBox="0 0 24 25">
  <path fill="currentColor" fill-rule="evenodd" d="M5.058 5.416a1.5 1.5 0 00-1.5 1.5v12a1.5 1.5 0 001.5 1.5h7.874a4.18 4.18 0 012.255-2.958 4.1 4.1 0 015.255-5.774V6.916a1.5 1.5 0 00-1.5-1.5H5.058zm15.384 8.166a2.5 2.5 0 10-1.703 4.334h.004a2.493 2.493 0 001.7-.665v-3.67zm0 5.048h-.17c-.475.232-1 .355-1.529.357h-.002c-.548 0-1.06-.134-1.527-.357h-.185a2.569 2.569 0 00-2.449 1.786h4.362a1.5 1.5 0 001.5-1.5v-.286z" clip-rule="evenodd" opacity=".5"/>
  <path fill="currentColor" d="M20.458 18.63h-.186c-.475.232-1 .355-1.529.357-.549 0-1.062-.134-1.529-.357h-.185a2.572 2.572 0 00-2.571 2.572v.642c0 .592.48 1.072 1.071 1.072h6.429c.591 0 1.071-.48 1.071-1.072v-.642a2.572 2.572 0 00-2.571-2.572zm-1.715-.714a2.5 2.5 0 10.004-5 2.5 2.5 0 00-.006 5h.002z"/>
  <rect width="8.374" height="2.148" x="9.601" y="7.473" fill="#fff" rx=".4"/>
  <rect width="2.257" height="2.148" x="5.646" y="7.473" fill="#fff" rx=".4"/>
</svg>
