<svg xmlns="http://www.w3.org/2000/svg" fill="none" viewBox="0 0 25 25">
  <rect width="2.017" height="3.371" x="11.798" y="2.53" fill="currentColor" opacity=".5" rx=".4"/>
  <rect width="2.017" height="3.371" x="11.798" y="18.175" fill="currentColor" opacity=".5" rx=".4"/>
  <path fill="currentColor" fill-rule="evenodd" d="M15.808 8.59a2.933 2.933 0 00-1.092-.846c-.45-.209-.884-.313-1.302-.313-.215 0-.434.019-.655.057-.222.038-.421.11-.599.218a1.48 1.48 0 00-.446.418c-.12.171-.18.39-.18.656 0 .228.047.418.142.57.095.152.234.285.418.399.183.114.402.218.655.313.253.096.538.194.855.295.456.152.931.32 1.425.504.494.183.944.427 1.35.731.404.304.74.68 1.006 1.13.266.45.4 1.01.4 1.682 0 .773-.143 1.44-.428 2.005a3.999 3.999 0 01-1.15 1.396 4.927 4.927 0 01-1.653.817c-.62.177-1.26.266-1.919.266a7.925 7.925 0 01-2.793-.504c-.9-.335-1.646-.813-2.242-1.434l2.128-2.166c.33.405.763.744 1.302 1.016.538.273 1.073.409 1.605.409.24 0 .475-.025.703-.076.228-.05.428-.133.599-.247.17-.114.307-.266.408-.456.101-.19.152-.418.152-.684 0-.253-.063-.469-.19-.646a1.855 1.855 0 00-.541-.484 4.358 4.358 0 00-.874-.4c-.349-.12-.744-.25-1.188-.389-.43-.14-.852-.304-1.263-.494a4.23 4.23 0 01-1.102-.732 3.389 3.389 0 01-.78-1.083c-.196-.424-.294-.94-.294-1.548 0-.747.152-1.387.456-1.92a3.964 3.964 0 011.197-1.31 5.142 5.142 0 011.672-.75 7.582 7.582 0 011.881-.238c.76 0 1.536.14 2.328.418.791.279 1.485.69 2.08 1.235L15.81 8.59z" clip-rule="evenodd"/>
</svg>
