<svg xmlns="http://www.w3.org/2000/svg" fill="none" viewBox="0 0 25 25">
  <path fill="currentColor" fill-rule="evenodd" d="M14.768 5.367a.351.351 0 00.077.396l1.172 1.142-.278 1.614c-.05.292.257.51.514.373L17.7 8.13l1.448.762a.354.354 0 00.383-.035 7.715 7.715 0 011.133 4.037 7.749 7.749 0 01-7.75 7.75 7.749 7.749 0 01-7.75-7.75 7.749 7.749 0 019.604-7.527zm1.646 5.527a.999.999 0 10-2 0 .999.999 0 102 0zm-5 0a.999.999 0 10-2 0 .999.999 0 102 0zm-3.216 3.562a4.504 4.504 0 004.466 3.938h.5a4.504 4.504 0 004.465-3.938.5.5 0 00-.497-.562H8.695c-.3 0-.534.265-.497.562z" clip-rule="evenodd" opacity=".5"/>
  <path fill="currentColor" d="M19.648 5.409l-1.185-.173-.53-1.076a.26.26 0 00-.465 0l-.53 1.076-1.185.173a.26.26 0 00-.144.443l.858.836-.203 1.182a.26.26 0 00.376.274l1.06-.559 1.06.559a.26.26 0 00.377-.274l-.202-1.182.857-.836a.26.26 0 00-.144-.443z"/>
</svg>
