<svg xmlns="http://www.w3.org/2000/svg" fill="none" viewBox="0 0 25 25">
  <rect width="2.017" height="10.062" x="4.378" y="11.563" fill="currentColor" opacity=".5" rx=".4" transform="rotate(-90 4.378 11.563)"/>
  <rect width="2.017" height="10.062" x="4.378" y="15.546" fill="currentColor" opacity=".5" rx=".4" transform="rotate(-90 4.378 15.546)"/>
  <path fill="currentColor" fill-rule="evenodd" d="M17.438 8.164a3.388 3.388 0 00-1.533-1.166 5.079 5.079 0 00-1.848-.367c-.77 0-1.47.14-2.1.42-.63.28-1.172.665-1.627 1.155a5.133 5.133 0 00-1.05 1.722 6.091 6.091 0 00-.368 2.142c0 .812.12 1.554.357 2.226a5.02 5.02 0 001.019 1.732c.44.483.97.858 1.585 1.124.616.266 1.31.399 2.08.399.797 0 1.504-.158 2.12-.473a4.146 4.146 0 001.491-1.25l2.121 1.492a6.796 6.796 0 01-2.415 1.921c-.952.455-2.065.683-3.339.683-1.162 0-2.23-.193-3.202-.578a7.378 7.378 0 01-2.51-1.617 7.361 7.361 0 01-1.638-2.478c-.392-.959-.588-2.02-.588-3.181 0-1.19.207-2.265.62-3.224a7.179 7.179 0 011.7-2.446 7.552 7.552 0 012.552-1.554c.98-.364 2.044-.546 3.192-.546.476 0 .973.045 1.491.136a7.585 7.585 0 011.491.42c.476.19.924.424 1.344.704.42.28.777.616 1.071 1.008l-2.016 1.596z" clip-rule="evenodd"/>
</svg>
