<svg xmlns="http://www.w3.org/2000/svg" fill="none" viewBox="0 0 25 25">
  <g fill="currentColor" clip-path="url(#clip0)">
    <path d="M19.67 15.48a.207.207 0 00-.235-.194c-.235.031-.471.046-.708.046a4.801 4.801 0 01-2.795-.841.21.21 0 00-.242 0 4.8 4.8 0 01-2.796.841 4.8 4.8 0 01-2.794-.841.21.21 0 00-.243 0 4.8 4.8 0 01-2.796.841c-.236 0-.473-.015-.707-.046a.207.207 0 00-.235.194 30.924 30.924 0 01-.958 6.29.833.833 0 00.802 1.062h13.863a.834.834 0 00.802-1.06 30.96 30.96 0 01-.958-6.292zm-5.11 5.685a.417.417 0 01-.416.417h-2.5a.416.416 0 01-.416-.417v-2.083a1.667 1.667 0 013.333 0v2.083z"/>
    <path d="M21.644 11.988a2.159 2.159 0 00-1.07-1.864l-6.75-3.943a.208.208 0 01.05-.38l2.255-.624a.833.833 0 00-.006-1.607L13.53 2.86a.833.833 0 00-1.052.805v2.096a.207.207 0 01-.104.18l-7.16 4.182a2.158 2.158 0 00-1.07 1.864V12c0 1.15 1.307 2.083 2.917 2.083a3.05 3.05 0 002.731-1.35.21.21 0 01.293-.08c.032.019.059.047.076.081a3.102 3.102 0 002.733 1.35 3.048 3.048 0 002.731-1.35.209.209 0 01.37 0 3.106 3.106 0 002.732 1.35c1.611 0 2.917-.933 2.917-2.084v-.01z" opacity=".5"/>
  </g>
  <defs>
    <clipPath id="clip0">
      <path fill="#fff" d="M0 0h24v24H0z" transform="translate(.894 .832)"/>
    </clipPath>
  </defs>
</svg>
