<svg xmlns="http://www.w3.org/2000/svg" fill="none" viewBox="0 0 25 24">
  <path fill="currentColor" fill-rule="evenodd" d="M16.371 15.768a12.017 12.017 0 00-1.147-3.995l-.31 1.415-1.264-3.844c-.231-.277-.477-.546-.737-.806a11.994 11.994 0 00-7.708-3.5c.693.627 1.38 1.258 2.067 1.891l1.212 1.12 1.649 1.537 1.638 1.546c.418.396.843.784 1.267 1.172l.39.357a28.314 28.314 0 011.596 1.589c.46.495.91 1 1.347 1.518zM5.133 5.111A284.156 284.156 0 007.71 7.918l6.659 7.58-2.645-.44a12.036 12.036 0 01-3.09-2.24 12.023 12.023 0 01-1.881-2.434l2.664-.082L6.04 8.96a12.044 12.044 0 01-.907-3.85zm10.73 11.165a44.635 44.635 0 01-1.518-1.346 28.487 28.487 0 01-1.59-1.597l-.37-.405c-.383-.42-.767-.84-1.157-1.252L9.68 10.037 8.144 8.39l-.217-.235-.056-.06 6.497 7.404-1.198.174c.876.305 1.78.507 2.693.604z" clip-rule="evenodd"/>
  <path fill="currentColor" fill-rule="evenodd" d="M16.883 17.106c.11-.102.216-.208.318-.318a34.889 34.889 0 00-.683-.846 43.827 43.827 0 00-1.493-1.692 28.318 28.318 0 00-1.597-1.59l-.39-.356c-.424-.388-.85-.776-1.267-1.171l-1.638-1.547-1.65-1.537-1.21-1.119a6.999 6.999 0 11-.248.248l.902.976.217.235 1.537 1.649 1.547 1.638c.39.413.774.832 1.157 1.252l.37.405a28.417 28.417 0 001.59 1.597c.55.51 1.114 1.009 1.692 1.493.279.231.56.46.846.683z" clip-rule="evenodd" opacity=".4"/>
</svg>
