<svg xmlns="http://www.w3.org/2000/svg" fill="none" viewBox="0 0 25 25">
  <path fill="currentColor" fill-rule="evenodd" d="M11.733 18.663h-7.27c-.702 0-1.272-.57-1.272-1.273V5.507c0-.703.57-1.273 1.273-1.273h2.443c.338 0 .662.134.9.373L9.981 6.78h8.911c.704 0 1.274.57 1.274 1.273v2.578a4.1 4.1 0 00-6.198 5.177 4.18 4.18 0 00-2.235 2.855zm8.433-1.51v.237c0 .703-.57 1.273-1.274 1.273h-5.496a2.579 2.579 0 012.413-1.683h.186c.465.223.978.357 1.526.357h.002a3.526 3.526 0 001.53-.357h.185a2.57 2.57 0 01.928.173zm-.143-3.387a2.49 2.49 0 01-1.435 2.263 2.493 2.493 0 01-1.065.237h-.004a2.485 2.485 0 01-1.9-.881 2.5 2.5 0 114.405-1.619z" clip-rule="evenodd" opacity=".5"/>
  <path fill="currentColor" d="M19.238 16.98h-.186c-.475.232-1 .355-1.529.357-.549 0-1.062-.134-1.528-.357h-.186a2.572 2.572 0 00-2.571 2.572v.643c0 .591.48 1.07 1.071 1.07h6.429c.591 0 1.071-.479 1.071-1.07v-.643a2.572 2.572 0 00-2.571-2.572zm-1.715-.714a2.5 2.5 0 10.004-5 2.5 2.5 0 00-.006 5h.002z"/>
</svg>
