<svg xmlns="http://www.w3.org/2000/svg" fill="none" viewBox="0 0 25 25">
  <path fill="currentColor" fill-rule="evenodd" d="M6.595 19.182h11.55c.58 0 1.05-.47 1.05-1.05v-7.35h.35c.58 0 1.05.47 1.05 1.05v7.7c0 .58-.47 1.05-1.05 1.05h-11.9c-.58 0-1.05-.47-1.05-1.05v-.35z" clip-rule="evenodd" opacity=".5"/>
  <path fill="currentColor" fill-rule="evenodd" d="M5.066 17.95h11.9c.58 0 1.05-.47 1.05-1.05V9.2c0-.58-.47-1.05-1.05-1.05h-7.35L7.824 6.358a1.05 1.05 0 00-.743-.308H5.066c-.58 0-1.05.47-1.05 1.05v9.8c0 .58.47 1.05 1.05 1.05z" clip-rule="evenodd"/>
</svg>
