<svg xmlns="http://www.w3.org/2000/svg" fill="none" viewBox="0 0 25 25">
  <path fill="currentColor" fill-rule="evenodd" d="M6.914 4.07a1 1 0 00-1 1v15a1 1 0 001 1h10.75a1 1 0 001-1v-6.19l-2.294 2.294-.007.006a1.346 1.346 0 01-.434.281l-2.318.927h-.001a1.329 1.329 0 01-.493.096l.137-.007-.139.007a1.328 1.328 0 01-1.232-1.82l.928-2.32c.067-.167.167-.32.295-.447l5.133-5.133.01-.009a1.33 1.33 0 01.074-.066l-3.51-3.474a.5.5 0 00-.351-.144H6.914z" clip-rule="evenodd" opacity=".5"/>
  <path fill="currentColor" d="M13.116 16.481a.327.327 0 00.122-.023l2.32-.928a.345.345 0 00.11-.072l5.125-5.123a.329.329 0 000-.464l-1.392-1.394a.337.337 0 00-.464 0l-5.125 5.125a.327.327 0 00-.072.11l-.928 2.32a.328.328 0 00.304.45zM21.257 9.407a.328.328 0 00.464 0l.696-.696a1.312 1.312 0 000-1.855 1.343 1.343 0 00-1.855 0l-.695.696a.328.328 0 000 .464l1.39 1.39z"/>
</svg>
