<svg xmlns="http://www.w3.org/2000/svg" fill="none" viewBox="0 0 25 25">
  <path fill="currentColor" fill-rule="evenodd" d="M5.131 3.818a1 1 0 00-1 1v15a1 1 0 001 1h10.75a1 1 0 001-1V17.29c-.08.273-.218.535-.433.764-.388.413-.897.58-1.406.58-.51 0-1.018-.167-1.407-.58-.381-.406-.52-.915-.52-1.407V9.56c0-.461.119-.967.496-1.368.387-.412.894-.556 1.371-.556h1.759a.408.408 0 00-.008-.008l-3.702-3.665a.5.5 0 00-.351-.144H5.13z" clip-rule="evenodd" opacity=".5"/>
  <path fill="currentColor" d="M15.042 17.635c-.286 0-.512-.089-.678-.266-.167-.177-.25-.418-.25-.722V9.56c0-.296.076-.523.226-.684.15-.16.365-.24.642-.24h2.985c.911 0 1.62.244 2.128.734s.761 1.173.761 2.05c0 .878-.254 1.562-.76 2.051-.508.49-1.218.734-2.13.734H15.97v2.443c0 .304-.083.545-.25.722-.166.177-.392.266-.677.266zm2.687-4.924c.927 0 1.391-.427 1.391-1.279 0-.86-.464-1.291-1.391-1.291h-1.76v2.57h1.76z"/>
</svg>
