<svg xmlns="http://www.w3.org/2000/svg" fill="none" viewBox="0 0 25 25">
  <path fill="currentColor" d="M6.5 20.534h-2c0-2.761 2.239-4 5-4h6c2.761 0 5 1.239 5 4h-2c0-1.657-1.343-2-3-2h-6c-1.657 0-3 .343-3 2z" opacity=".5"/>
  <path fill="currentColor" fill-rule="evenodd" d="M23.5 8.534h-1.826a2 2 0 00-2 2v2a1 1 0 01-1 1H6.37a1 1 0 01-1-1v-2a2 2 0 00-2-2H1.5a3 3 0 013-3h16a3 3 0 013 3z" clip-rule="evenodd" opacity=".5"/>
  <path fill="currentColor" fill-rule="evenodd" d="M23.5 10.534v5a3 3 0 01-3 3h-16a3 3 0 01-3-3v-5h1.87v2a3 3 0 003 3h12.304a3 3 0 003-3v-2H23.5z" clip-rule="evenodd"/>
</svg>
