<svg xmlns="http://www.w3.org/2000/svg" fill="none" viewBox="0 0 25 25">
  <path fill="currentColor" d="M1.9 17.19c0-.433.351-.785.785-.785h12.98v1.57H2.684a.785.785 0 01-.785-.785z"/>
  <path fill="currentColor" fill-rule="evenodd" d="M18.297 5.06H5.582a.908.908 0 00-.908.908v9.082h10.827V8.68c0-.776.63-1.406 1.407-1.406h2.297V5.968a.908.908 0 00-.908-.908z" clip-rule="evenodd"/>
  <path fill="currentColor" fill-rule="evenodd" d="M17.416 8.406a.676.676 0 00-.663.688v9.086c0 .38.297.689.663.689h4.242a.676.676 0 00.663-.689V9.094a.676.676 0 00-.663-.688h-4.242z" clip-rule="evenodd" opacity=".5"/>
</svg>
