<svg xmlns="http://www.w3.org/2000/svg" fill="none" viewBox="0 0 23 23">
  <path fill="currentColor" d="M2.35 9.445a1.5 1.5 0 011.5-1.5h14.605a1.5 1.5 0 011.5 1.5v5.704H2.35V9.445z" opacity=".5"/>
  <path fill="currentColor" d="M2.35 18.1a1.5 1.5 0 001.5 1.5h14.605a1.5 1.5 0 001.5-1.5v-1.414H2.35V18.1z"/>
  <path fill="currentColor" fill-rule="evenodd" d="M14.361 7.945a2.68 2.68 0 002.679-2.673A2.68 2.68 0 0014.359 2.6c-.528 0-1.167.08-1.89.677-.37.306-.766.75-1.26 1.415-.496-.668-.897-1.112-1.272-1.42C9.215 2.68 8.582 2.6 8.058 2.6a2.68 2.68 0 00-2.68 2.672 2.68 2.68 0 002.678 2.673h6.305zm.857-3.532a1.215 1.215 0 00-.859-.356c-.624 0-1.06.107-2.632 2.43h2.632a1.215 1.215 0 00.859-2.074zM10.69 6.487c-1.574-2.33-2.024-2.43-2.632-2.43a1.215 1.215 0 100 2.43h2.632z" clip-rule="evenodd"/>
</svg>
