<svg xmlns="http://www.w3.org/2000/svg" fill="none" viewBox="0 0 25 25">
  <circle cx="5.625" cy="12.546" r="4.5" fill="currentColor" opacity=".5"/>
  <circle cx="18.68" cy="12.546" r="4.5" fill="currentColor" opacity=".5"/>
  <path fill="currentColor" fill-rule="evenodd" d="M10.888 13.38a3.91 3.91 0 00.119-.962c0-.519-.1-1.008-.276-1.44h2.844a3.817 3.817 0 00-.276 1.44c0 .335.042.659.119.962h-2.53zM1.36 11.076H.553a.4.4 0 00-.4.4v1.6c0 .221.179.4.4.4h.667a4.663 4.663 0 01-.095-.945c0-.526.085-1.02.235-1.455zM23.08 13.476c.065-.298.1-.616.1-.945 0-.526-.09-1.02-.248-1.455h.82c.222 0 .4.18.4.4v1.6a.4.4 0 01-.4.4h-.673z" clip-rule="evenodd"/>
</svg>
