<svg xmlns="http://www.w3.org/2000/svg" fill="none" viewBox="0 0 25 25">
  <path fill="currentColor" d="M17.118 13.452a5.15 5.15 0 10-7.284-7.285 5.15 5.15 0 007.284 7.285z" opacity=".5"/>
  <path fill="currentColor" d="M20.624 16.328l-2.092-2.092c-.099.113-.175.24-.283.347a6.754 6.754 0 01-9.55 0 6.756 6.756 0 010-9.546c.106-.106.22-.202.331-.3L7.518 3.225a.563.563 0 00-.796 0l-.398.398a.563.563 0 000 .795l.376.376c-2.455 3.303-2.192 7.987.805 10.983a8.38 8.38 0 004.28 2.295v1.3H8.552a1.265 1.265 0 00-1.265 1.266.422.422 0 00.422.422h10.41a.421.421 0 00.421-.422 1.266 1.266 0 00-1.266-1.265H14.04V18.22a8.418 8.418 0 004.452-1.64l.94.94a.562.562 0 00.796 0l.397-.398a.562.562 0 000-.796z"/>
</svg>
