<svg xmlns="http://www.w3.org/2000/svg" fill="none" viewBox="0 0 25 25">
  <path fill="currentColor" fill-rule="evenodd" d="M5.974 7.252a1.5 1.5 0 00-1.5 1.5v9.998a1.5 1.5 0 001.5 1.5h13.84a1.5 1.5 0 001.5-1.5V8.752a1.5 1.5 0 00-1.5-1.5H5.975zm6.173 2.58a1.18 1.18 0 00-1.179 1.18v.813h-.813a1.18 1.18 0 00-1.18 1.179v1.494c0 .65.529 1.18 1.18 1.18h.813v.813c0 .65.528 1.179 1.179 1.179h1.495a1.18 1.18 0 001.178-1.18v-.813h.814a1.18 1.18 0 001.179-1.179v-1.494a1.18 1.18 0 00-1.179-1.18h-.814v-.813a1.18 1.18 0 00-1.178-1.179h-1.495z" clip-rule="evenodd" opacity=".5"/>
  <path fill="currentColor" d="M15.634 12.755h-1.743V11.01a.25.25 0 00-.25-.249h-1.494a.25.25 0 00-.249.25v1.743h-1.743a.25.25 0 00-.25.249v1.494c0 .137.113.25.25.25h1.743v1.743c0 .137.112.249.25.249h1.494a.25.25 0 00.249-.25v-1.743h1.743a.25.25 0 00.25-.249v-1.494a.25.25 0 00-.25-.25zM8.307 5.65c0-.221.179-.4.4-.4h8.375c.22 0 .4.179.4.4v1.602H8.307V5.65z"/>
</svg>
