<svg xmlns="http://www.w3.org/2000/svg" fill="none" viewBox="0 0 25 25">
  <path fill="currentColor" d="M18.88 7.929a.179.179 0 00.18-.18v-.535a.536.536 0 00-.536-.535H9.238l-.129-.055-.958-.992a1.25 1.25 0 00-.9-.382H5.156a1.455 1.455 0 00-1.454 1.454v9.082a1.25 1.25 0 001.25 1.25h.179a.179.179 0 00.178-.179v-6.786A2.143 2.143 0 017.452 7.93h11.429z"/>
  <path fill="currentColor" d="M19.238 9.179H7.809a1.251 1.251 0 00-1.25 1.25V19a1.251 1.251 0 001.25 1.25h11.429a1.252 1.252 0 001.25-1.25v-8.572a1.252 1.252 0 00-1.25-1.25zM11.452 11.5a1.071 1.071 0 110 2.143 1.071 1.071 0 010-2.143zm5.172 6.428h-5.957a.357.357 0 01-.304-.544l1.056-1.706a.715.715 0 01.91-.147l1.127.862a.178.178 0 00.25-.032l1.079-1.39a.716.716 0 011.134.049l1.033 2.41a.357.357 0 01-.326.498h-.002z" opacity=".5"/>
</svg>
