<svg xmlns="http://www.w3.org/2000/svg" fill="none" viewBox="0 0 25 25">
  <path fill="currentColor" fill-rule="evenodd" d="M4.106 9.927a1 1 0 00-1 1v10.969a1 1 0 001 1h16a1 1 0 001-1V10.927a1 1 0 00-1-1h-.538a2.715 2.715 0 01-.768 1.534l-.001.002-4.774 4.774a2.726 2.726 0 01-3.837 0l-.007-.007-4.766-4.767a2.682 2.682 0 01-.779-1.536h-.53z" clip-rule="evenodd" opacity=".5"/>
  <path fill="currentColor" d="M7.34 8.814h2.958V3.75a.724.724 0 01.723-.723h2.171a.724.724 0 01.724.723v5.065h2.957a.724.724 0 01.511 1.235l-4.766 4.766a.726.726 0 01-1.022 0L6.829 10.05a.723.723 0 01.511-1.235z"/>
</svg>
