<svg xmlns="http://www.w3.org/2000/svg" fill="none" viewBox="0 0 25 25">
  <circle cx="16.039" cy="14.554" r="5.423" fill="currentColor" opacity=".5"/>
  <path fill="currentColor" d="M10.457 5.75H6.59a1.309 1.309 0 00-1.244.897l-1.383 4.15c-.022.066-.022.135-.033.203h6.527V5.75zm5.687 2.187c.249 0 .497.016.744.047l-.446-1.334a1.308 1.308 0 00-1.244-.9h-3.866v4.304a6.534 6.534 0 014.812-2.117zM9.582 14.5c0-.904.188-1.798.552-2.625h-6.24v6.562a1.312 1.312 0 001.313 1.313h7.016a6.548 6.548 0 01-2.641-5.25zm9.685-1.633l-.706-.71a.3.3 0 00-.426-.003l-2.658 2.636-1.151-1.162a.3.3 0 00-.427-.003l-.71.705a.3.3 0 00-.003.427l2.07 2.086a.3.3 0 00.426.003l3.582-3.555a.3.3 0 00.003-.424z"/>
</svg>
