<svg xmlns="http://www.w3.org/2000/svg" fill="none" viewBox="0 0 25 25">
  <path fill="currentColor" fill-rule="evenodd" d="M15.863 19.18a4.08 4.08 0 01-.682-2.487 4.045 4.045 0 011.122-2.599 3.838 3.838 0 011.374-.914H4.894v4.5c0 .8.677 1.5 1.45 1.5h9.518z" clip-rule="evenodd" opacity=".4"/>
  <path fill="currentColor" d="M22.515 18.901a.145.145 0 01-.02-.18 3.24 3.24 0 10-.987.987.147.147 0 01.182.02l1.451 1.452a.585.585 0 00.827-.827l-1.453-1.452zM19.394 7.962h-2.5V6.57c0-.742-.7-1.39-1.5-1.39h-5c-.8 0-1.5.648-1.5 1.39v1.39h-2.5c-.8 0-1.5.65-1.5 1.391v2.318h16V9.352c0-.742-.7-1.39-1.5-1.39zm-4.5 0h-4v-.928h4v.928z"/>
</svg>
