<svg xmlns="http://www.w3.org/2000/svg" fill="none" viewBox="0 0 25 25">
  <path fill="currentColor" fill-rule="evenodd" d="M7.52 4.416a1 1 0 00-1 1v15a1 1 0 001 1h3.319v-1.984h-.728a1.422 1.422 0 01-1.004-2.427l2.785-2.785a1.424 1.424 0 012.003 0l.004.004 2.78 2.78c.9.9.256 2.428-1.005 2.428h-.725v1.984h3.32a1 1 0 001-1V8.58a.5.5 0 00-.148-.355L15.419 4.56a.5.5 0 00-.351-.145H7.519z" clip-rule="evenodd" opacity=".5"/>
  <path fill="currentColor" d="M15.674 18.432H13.95v2.954a.422.422 0 01-.422.422H12.26a.422.422 0 01-.422-.422v-2.954h-1.726a.422.422 0 01-.298-.72l2.78-2.781a.424.424 0 01.597 0l2.78 2.78a.422.422 0 01-.298.72z"/>
</svg>
