<svg xmlns="http://www.w3.org/2000/svg" fill="none" viewBox="0 0 25 25">
  <path fill="currentColor" d="M7.403 10.252a2.626 2.626 0 100-5.252 2.626 2.626 0 100 5.252zM6.09 11.566a2.626 2.626 0 00-2.626 2.626v1.313c0 .726.587 1.313 1.313 1.313h2.705a6.014 6.014 0 013.086-4.49 2.607 2.607 0 00-1.852-.762H6.09z" opacity=".5"/>
  <path fill="currentColor" d="M17.682 13.404h-.273c-.699.341-1.47.522-2.248.525a5.182 5.182 0 01-2.25-.525h-.272a3.783 3.783 0 00-3.782 3.782v.945c0 .87.706 1.576 1.576 1.576h9.455c.87 0 1.576-.706 1.576-1.576v-.945a3.783 3.783 0 00-3.782-3.782zm-2.521-1.05A3.677 3.677 0 1015.167 5a3.677 3.677 0 00-.01 7.353h.004z"/>
</svg>
