<svg xmlns="http://www.w3.org/2000/svg" fill="none" viewBox="0 0 25 25">
  <path fill="currentColor" d="M14.345 13.418H9.158l-2.264 1.698a.265.265 0 01-.424-.213V13.42a1.751 1.751 0 01-1.75-1.75V7.296a1.752 1.752 0 011.75-1.75h7.875a1.751 1.751 0 011.75 1.75v4.375a1.748 1.748 0 01-1.75 1.747z" opacity=".5"/>
  <path fill="currentColor" d="M20.47 11.67v4.375a1.751 1.751 0 01-1.75 1.75h-.875v1.485a.264.264 0 01-.424.213l-2.264-1.698H11.72a1.752 1.752 0 01-1.75-1.75v-1.75h4.375a2.628 2.628 0 002.625-2.624V9.92h1.75a1.752 1.752 0 011.75 1.75z"/>
</svg>
