<svg xmlns="http://www.w3.org/2000/svg" fill="none" viewBox="0 0 25 25">
  <path fill="currentColor" d="M12.07 15.762c-1.283 0-2.322-1.248-2.322-2.786s1.04-2.785 2.322-2.785 2.321 1.247 2.321 2.785-1.04 2.786-2.321 2.786z"/>
  <path fill="currentColor" d="M20.809 7.128c-1.126-.472-2.252-.652-3.378-.652-3.575 0-7.148 1.81-10.722 1.81a8.804 8.804 0 01-2.689-.399.987.987 0 00-.3-.047c-.5 0-.936.387-.936.923v9.206c0 .367.21.714.547.855 1.125.473 2.252.652 3.378.652 3.574 0 7.148-1.809 10.722-1.809.896 0 1.792.114 2.689.398a.997.997 0 00.3.047c.5 0 .935-.386.935-.923V7.983a.923.923 0 00-.546-.855zm-8.74 8.634c-1.282 0-2.32-1.248-2.32-2.786s1.039-2.785 2.32-2.785c1.283 0 2.322 1.247 2.322 2.785s-1.04 2.786-2.321 2.786z" opacity=".5"/>
</svg>
