<svg xmlns="http://www.w3.org/2000/svg" fill="none" viewBox="0 0 25 25">
  <path fill="currentColor" d="M16.906 4.706H14.78a.531.531 0 00-.532.532V6.83h3.188V5.238a.531.531 0 00-.531-.532zm-7.438 0H7.343a.531.531 0 00-.531.532V6.83h3.187V5.238a.531.531 0 00-.53-.532zm1.594 8.5h2.125V7.894h-2.125v5.312z" opacity=".5"/>
  <path fill="currentColor" d="M5.746 8.956c-.083 3.116-2.007 3.793-2.122 8.102v1.46a1.062 1.062 0 001.063 1.063h3.187a1.062 1.062 0 001.063-1.062v-5.313h1.062V7.894H6.807c-.586 0-1.045.477-1.06 1.062zm12.757 0c-.017-.585-.475-1.062-1.06-1.062h-3.194v5.312h1.063v5.313a1.062 1.062 0 001.063 1.062h3.187a1.062 1.062 0 001.063-1.062v-1.461c-.115-4.31-2.04-4.986-2.122-8.102z"/>
</svg>
