<svg xmlns="http://www.w3.org/2000/svg" fill="none" viewBox="0 0 25 25">
  <path fill="currentColor" fill-rule="evenodd" d="M12.58 4.488c.187-1.202 0-3.115 0-3.115a.53.53 0 00-.104-.323.39.39 0 00-.262-.156h-2.33a.379.379 0 00-.288.14.526.526 0 00-.119.339s-.183 1.912 0 3.115c.116.758.478 1.905.478 1.905v4.224a6.945 6.945 0 011.097-.067h.037c.363 0 .471.017 1.003.118V6.393s.37-1.146.488-1.905z" clip-rule="evenodd"/>
  <path fill="currentColor" fill-rule="evenodd" d="M11.4 22.998a4.719 4.719 0 013.008-6.122 3.11 3.11 0 01.227-2.349c.184-.33.283-.7.287-1.078a2.908 2.908 0 00-.848-1.823c-.544-.566-1.082-.786-1.787-.92l-.08-.016c-.633-.12-.73-.14-1.118-.14h-.037c-.403.001-.667.002-1.22.085-.571.086-1.341.459-1.837.95-.496.491-.812.996-.896 1.828.002.356.012.65.183.963l.08.175c.234.439.353.929.348 1.426a3.139 3.139 0 01-.527 1.749l-.227.287a2.743 2.743 0 00-.516 1.63c0 1.856 2.061 3.366 4.589 3.366.124 0 .248-.004.37-.011z" clip-rule="evenodd" opacity=".5"/>
  <path fill="currentColor" fill-rule="evenodd" d="M15.83 24.894a3.519 3.519 0 100-7.038 3.519 3.519 0 000 7.038zm-1.085-1.644a.725.725 0 11-.277-1.397c.022 0 .044 0 .066.003a.074.074 0 00.055-.018.075.075 0 00.024-.054v-1.431a.58.58 0 01.474-.572l1.741-.326a.58.58 0 01.688.571v1.973a.726.726 0 11-.726-.726c.023 0 .045 0 .066.003a.074.074 0 00.056-.019.075.075 0 00.023-.054v-1.09a.072.072 0 00-.087-.07l-1.596.298a.072.072 0 00-.059.072v2.166a.728.728 0 01-.447.67z" clip-rule="evenodd"/>
</svg>
