<svg xmlns="http://www.w3.org/2000/svg" fill="none" viewBox="0 0 25 25">
  <path fill="currentColor" fill-rule="evenodd" d="M16.29 4.476c.532.01 1.04.229 1.41.61L18.823 6.2a2.821 2.821 0 01.528 3.466 36.319 36.319 0 01-3.385 4.524h-2.21a1.888 1.888 0 00-1.888 1.888v2.1a36.298 36.298 0 01-3.773 2.744c-.404.252-.87.383-1.346.38a3.025 3.025 0 01-2.119-.906l-1.118-1.12a1.834 1.834 0 01-.137-2.584l1.829-1.83a1.636 1.636 0 011.168-.474 2.015 2.015 0 011.422.605l.491.49a.296.296 0 00.397.02 37.084 37.084 0 005.247-5.246.296.296 0 00-.021-.395l-.491-.491a1.836 1.836 0 01-.136-2.585l1.841-1.836a1.632 1.632 0 011.168-.474zM14.808 15.45a36.384 36.384 0 01-1.68 1.634v-1.005a.63.63 0 01.629-.629h1.051z" clip-rule="evenodd" opacity=".5"/>
  <path fill="currentColor" fill-rule="evenodd" d="M13.765 15.02a1 1 0 00-1 1v4.456a1 1 0 001 1h6.576a1 1 0 001-1v-4.455a1 1 0 00-1-1h-6.576zm1.89 4.19c0-.147-.087-.22-.26-.22h-.33v-1.806a.257.257 0 00-.075-.196.26.26 0 00-.192-.075.48.48 0 00-.25.075l-.56.338a.205.205 0 00-.11.188c0 .062.02.117.06.167.042.05.093.075.152.075.036 0 .072-.01.107-.032l.313-.189v1.454h-.33c-.176 0-.264.074-.264.22 0 .15.088.224.263.224h1.216c.173 0 .26-.074.26-.223zm2.129-.22c.175 0 .263.073.263.22 0 .149-.088.224-.263.224h-1.322a.247.247 0 01-.178-.064.233.233 0 01-.064-.167c0-.086.034-.164.103-.235l.782-.828c.175-.185.263-.356.263-.512 0-.097-.027-.17-.082-.22-.054-.053-.134-.079-.238-.079a.655.655 0 00-.249.047c-.076.03-.163.075-.263.135a.968.968 0 01-.092.05.182.182 0 01-.075.014.159.159 0 01-.128-.068.265.265 0 01-.053-.163c0-.045.007-.082.021-.11a.233.233 0 01.078-.082 1.3 1.3 0 01.366-.185 1.3 1.3 0 01.42-.071c.168 0 .315.028.44.085a.644.644 0 01.398.608c0 .144-.03.278-.092.402-.059.123-.16.26-.302.412l-.558.586h.825zm2.325-.623a.615.615 0 00-.338-.224.581.581 0 00.395-.572.62.62 0 00-.103-.355.653.653 0 00-.295-.235 1.085 1.085 0 00-.445-.085c-.144 0-.286.022-.426.067a1.104 1.104 0 00-.356.189.261.261 0 00-.078.085.238.238 0 00-.021.107.25.25 0 00.053.16.162.162 0 00.128.064.271.271 0 00.078-.011.657.657 0 00.09-.046c.099-.06.186-.105.262-.135a.646.646 0 01.245-.047c.107 0 .19.029.25.086.059.054.088.131.088.23 0 .105-.035.182-.107.232-.068.05-.175.074-.32.074h-.149a.18.18 0 00-.145.064.226.226 0 00-.054.15c0 .059.018.11.053.153a.18.18 0 00.146.063h.21c.152 0 .262.025.33.075.07.05.104.13.104.242 0 .114-.034.198-.1.252-.066.052-.172.079-.316.079a.705.705 0 01-.267-.047 2.376 2.376 0 01-.27-.135.416.416 0 00-.089-.043.21.21 0 00-.078-.014.158.158 0 00-.128.068.236.236 0 00-.053.156c0 .04.007.076.021.107.017.03.043.06.078.085.102.08.223.144.363.189.142.045.29.067.444.067.185 0 .347-.028.487-.085a.713.713 0 00.32-.249.633.633 0 00.114-.377.61.61 0 00-.121-.384z" clip-rule="evenodd"/>
</svg>
