<svg xmlns="http://www.w3.org/2000/svg" fill="none" viewBox="0 0 25 24">
  <path fill="currentColor" fill-rule="evenodd" d="M4.894 9.675l6.88 3.972a.888.888 0 00.231.093v7.704l-6.62-3.918a1 1 0 01-.49-.86V9.675zm16-.106v7.097a1 1 0 01-.49.86l-6.62 3.918v-7.771a.823.823 0 00.047-.026l7.063-4.078z" clip-rule="evenodd"/>
  <path fill="currentColor" fill-rule="evenodd" d="M5.11 7.747a.999.999 0 01.314-.262l7-3.728a1 1 0 01.94 0l7 3.728a1 1 0 01.253.191l-7.675 4.431a.89.89 0 00-.14.1.885.885 0 00-.139-.1L5.11 7.747z" clip-rule="evenodd" opacity=".5"/>
</svg>
