<svg xmlns="http://www.w3.org/2000/svg" fill="none" viewBox="0 0 25 25">
  <path fill="currentColor" d="M16.693 14.997v-2.958h-5.065a.724.724 0 01-.723-.723V9.145a.724.724 0 01.723-.724h5.065V5.464a.723.723 0 011.235-.511l4.766 4.766a.726.726 0 010 1.022l-4.766 4.767a.723.723 0 01-1.235-.511z"/>
  <path fill="currentColor" d="M9.134 10.956v2.957H14.2a.724.724 0 01.724.724v2.17a.723.723 0 01-.724.724H9.134v2.958A.724.724 0 017.9 21l-4.767-4.767a.726.726 0 010-1.022L7.9 10.445a.723.723 0 011.234.51z" opacity=".5"/>
</svg>
