<svg xmlns="http://www.w3.org/2000/svg" fill="none" viewBox="0 0 25 25">
  <path fill="currentColor" d="M21.83 17.539l-4.745 3.498c-.63.462-1.39.711-2.17.713h-12.2a.566.566 0 01-.562-.563v-3.375a.567.567 0 01.562-.562h1.947l1.635-1.327A4.137 4.137 0 018.903 15h5.625a1.127 1.127 0 011.111 1.314c-.092.555-.611.936-1.173.936h-2.75a.562.562 0 100 1.125h4.239l4.207-3.1a1.404 1.404 0 012.226.783 1.407 1.407 0 01-.557 1.48z" opacity=".4"/>
  <path fill="currentColor" fill-rule="evenodd" d="M6.62 4.75h12.667c.368 0 .666.298.666.667v6.666a.667.667 0 01-.666.667H6.62a.667.667 0 01-.667-.667V5.417c0-.369.299-.667.667-.667zm6.333 6.667a2.667 2.667 0 100-5.334 2.667 2.667 0 000 5.334zm0-1.334a1.333 1.333 0 100-2.666 1.333 1.333 0 000 2.666z" clip-rule="evenodd"/>
</svg>
