<svg xmlns="http://www.w3.org/2000/svg" fill="none" viewBox="0 0 26 25">
  <path fill="currentColor" d="M18.792 11.584c.791-.29 1.222-.475 1.249-.493v-.009a6.967 6.967 0 00-3.492-5.013A7.008 7.008 0 007.024 8.76a7.002 7.002 0 00-.642 5.269c-.247.043-.379.07-.379.07s-2.84.642-4.907.396c-1.997-.247 4.046-3.017 4.503-3.228C1.245 12.99.867 13.483.867 13.483c-1.32.968.062 1.364.062 1.364 1.319.483 5.145-.097 5.145-.097l.528-.08c.448-.07.888-.149 1.319-.228 5.26-.941 9.041-2.181 10.87-2.858z" opacity=".5"/>
  <path fill="currentColor" d="M25.185 9.851c1.152-1.777-1.31-2.26-1.31-2.26s-2.085-.484-4.706.105c.168-.009 6.025-.448 5.955 1.223 0 0 .29 1.117-3.562 3.016-.466.23-.95.458-1.452.669-.448.194-.905.378-1.38.563-2.93 1.117-6.298 1.979-10.044 2.568-.475.08-.959.15-1.452.211v.009a7.05 7.05 0 002.471 2.33c3.37 1.892 7.635.687 9.526-2.69.378-.678.633-1.39.774-2.112 0 0 4.028-1.855 5.18-3.632z"/>
</svg>
