<svg xmlns="http://www.w3.org/2000/svg" fill="none" viewBox="0 0 25 24">
  <path fill="currentColor" d="M20.985 10.922l-2.36-7.078a.625.625 0 00-.789-.395l-7.164 2.383a.625.625 0 00-.394.79l2.07 6.226c.7.195 1.356.522 1.933.964l6.31-2.101a.625.625 0 00.394-.79zM10.855 14.5a3.75 3.75 0 10.001 7.5 3.75 3.75 0 000-7.5z" opacity=".5"/>
  <path fill="currentColor" d="M23.325 14.75l-.399-1.188a.625.625 0 00-.789-.394l-7.085 2.363c.462.71.735 1.527.792 2.373l7.082-2.365a.624.624 0 00.399-.789zM5.855 2H1.482a.625.625 0 00-.625.625v1.25a.625.625 0 00.625.625h3.472l3.184 9.553a4.97 4.97 0 012.375-.79L7.043 2.854A1.25 1.25 0 005.856 2z"/>
</svg>
