<svg xmlns="http://www.w3.org/2000/svg" fill="none" viewBox="0 0 25 25">
  <path fill="currentColor" d="M8.535 9.713a.176.176 0 00.147.038l4.313-.822c.176-.034.356-.034.531 0l4.312.822a.177.177 0 00.213-.175v-1.05a1.953 1.953 0 00-1.951-1.95h-1.242a.178.178 0 01-.177-.178V3.915a.355.355 0 00-.355-.355h-2.128a.355.355 0 00-.355.355v2.483a.177.177 0 01-.178.177h-1.243A1.954 1.954 0 008.47 8.526v1.05a.175.175 0 00.064.137z"/>
  <path fill="currentColor" fill-rule="evenodd" d="M6.476 11.353a.4.4 0 00-.297.512l1.532 4.808a1.803 1.803 0 011.793.743l.006.01.007.01a1.394 1.394 0 001.016.614 1.917 1.917 0 001.312-.724l.007-.01.008-.01a1.804 1.804 0 012.97.27l.005.007.004.008a.87.87 0 00.72.459 1.255 1.255 0 001-.579l.004-.007.005-.008a1.804 1.804 0 012.09-.71l1.672-4.875a.4.4 0 00-.294-.52l-6.675-1.44a.4.4 0 00-.169 0l-6.716 1.442z" clip-rule="evenodd" opacity=".5"/>
  <path fill="currentColor" d="M21.42 19.706a.709.709 0 00-.797-.61c-1.149.155-1.942-1.064-1.948-1.073a.74.74 0 00-1.22.02 2.317 2.317 0 01-1.897 1.071 1.934 1.934 0 01-1.658-1.021.74.74 0 00-1.218-.11 2.98 2.98 0 01-2.145 1.134 2.458 2.458 0 01-1.906-1.092.74.74 0 00-1.162-.063c-.01.013-1.087 1.32-2.27 1.167a.71.71 0 00-.185 1.406c.128.017.256.025.385.025a3.973 3.973 0 002.47-1.01.18.18 0 01.232.005c.66.62 1.53.97 2.436.978a4.037 4.037 0 002.523-.937.177.177 0 01.235.012 3.17 3.17 0 002.263.922 3.568 3.568 0 002.398-.922.178.178 0 01.236 0 3.232 3.232 0 002.62.893.71.71 0 00.608-.795z"/>
</svg>
