<svg xmlns="http://www.w3.org/2000/svg" fill="none" viewBox="0 0 25 25">
  <path fill="currentColor" d="M8.799 8.866l-.83-.81a.6.6 0 00-.875.047 6.152 6.152 0 000 7.914.6.6 0 00.875.048l.83-.81a.551.551 0 00.053-.74 3.915 3.915 0 010-4.909.55.55 0 00-.053-.74zm8.245-.763a.599.599 0 00-.875-.047l-.83.81a.551.551 0 00-.052.74 3.915 3.915 0 010 4.908.552.552 0 00.053.741l.83.81a.598.598 0 00.874-.048 6.152 6.152 0 000-7.914z" opacity=".5"/>
  <path fill="currentColor" d="M12.07 10.019a2.04 2.04 0 100 4.081 2.04 2.04 0 000-4.081zM3.904 12.06a7.812 7.812 0 012.02-5.251.57.57 0 00-.039-.787l-.814-.796a.598.598 0 00-.86.037 10.034 10.034 0 00-2.64 6.797c0 2.532.933 4.921 2.64 6.8a.599.599 0 00.86.036l.814-.795a.569.569 0 00.04-.787 7.812 7.812 0 01-2.02-5.254zm16.024-6.799a.599.599 0 00-.86-.036l-.814.797a.569.569 0 00-.039.787 7.836 7.836 0 010 10.503.57.57 0 00.04.787l.814.795a.6.6 0 00.859-.036 10.034 10.034 0 002.64-6.798c0-2.531-.933-4.92-2.64-6.799z"/>
</svg>
