<svg xmlns="http://www.w3.org/2000/svg" fill="none" viewBox="0 0 25 25">
  <path fill="currentColor" d="M19.245 6.041a.284.284 0 00-.144-.233L17.16 5l-.808-1.939a.26.26 0 00-.466 0L15.078 5l-1.939.808a.26.26 0 000 .466l1.94.808.808 1.94a.26.26 0 00.466 0l.809-1.94 1.939-.808a.285.285 0 00.144-.233zm3.635 5.438l-1.551-.646-.647-1.551a.207.207 0 00-.296-.085.208.208 0 00-.077.085l-.647 1.55-1.551.647a.209.209 0 000 .373l1.551.647.647 1.551a.208.208 0 00.373 0l.647-1.55 1.551-.648a.208.208 0 000-.373z" opacity=".5"/>
  <path fill="currentColor" d="M17.225 13.357l-4.093-.597-1.833-3.719a.896.896 0 00-1.609 0L7.858 12.76l-4.094.597a.897.897 0 00-.496 1.531l2.965 2.89-.703 4.086c-.125.739.652 1.293 1.3.945l3.665-1.929 3.664 1.93a.897.897 0 001.3-.946l-.698-4.085 2.964-2.89a.9.9 0 00-.5-1.532z"/>
</svg>
