<svg xmlns="http://www.w3.org/2000/svg" fill="none" viewBox="0 0 25 24">
  <path fill="currentColor" fill-rule="evenodd" d="M7.562 5.5a.5.5 0 01.5-.5h13.17a.5.5 0 01.5.5v9.928a.5.5 0 01-.5.5h-8.384a3.837 3.837 0 00-2.252-2.231 3.752 3.752 0 00-3.035-5.953V5.5zm1.916 9.22c.836.066 1.56.533 1.98 1.208H8.062a.5.5 0 01-.5-.5v-.359a3.526 3.526 0 001.525-.357h.185c.07 0 .138.003.206.008zm-.856-.96a2.493 2.493 0 01-1.06.237V8.995a2.501 2.501 0 011.543 4.466l-.018.015c-.144.11-.3.206-.465.284zm6.238-2.265c0-.147-.087-.22-.26-.22h-.33V9.468a.257.257 0 00-.075-.196.26.26 0 00-.192-.074.48.48 0 00-.249.074l-.561.338a.205.205 0 00-.11.188c0 .062.02.118.06.167.042.05.093.075.153.075.035 0 .07-.01.106-.032l.313-.188v1.453h-.33c-.176 0-.264.074-.264.22 0 .15.088.225.263.225H14.6c.173 0 .26-.075.26-.224zm2.129-.22c.175 0 .263.073.263.22 0 .15-.088.224-.263.224h-1.322a.247.247 0 01-.178-.064.233.233 0 01-.064-.167c0-.085.034-.164.103-.235l.782-.828c.175-.185.263-.355.263-.512 0-.097-.027-.17-.082-.22-.054-.052-.134-.078-.238-.078a.655.655 0 00-.249.046c-.076.03-.163.076-.263.135-.04.024-.07.04-.092.05a.182.182 0 01-.075.014.159.159 0 01-.128-.068.266.266 0 01-.053-.163c0-.045.007-.082.021-.11a.232.232 0 01.079-.082c.106-.078.228-.14.366-.185a1.3 1.3 0 01.42-.071c.167 0 .314.028.44.085a.643.643 0 01.398.608c0 .145-.03.278-.093.402-.059.123-.16.26-.302.412l-.558.587h.825zm2.325-.623a.616.616 0 00-.338-.223.582.582 0 00.395-.573.62.62 0 00-.103-.355.654.654 0 00-.295-.235 1.085 1.085 0 00-.444-.085c-.145 0-.287.022-.427.068a1.105 1.105 0 00-.355.188.262.262 0 00-.079.085.238.238 0 00-.021.107.25.25 0 00.053.16.161.161 0 00.128.064.271.271 0 00.078-.01.657.657 0 00.09-.047c.099-.06.187-.104.262-.135a.646.646 0 01.246-.046c.106 0 .19.028.248.085.06.054.09.131.09.231 0 .104-.036.181-.107.231-.07.05-.176.075-.32.075h-.15a.18.18 0 00-.145.064.226.226 0 00-.054.149c0 .06.018.11.054.153a.18.18 0 00.145.064h.21c.152 0 .262.025.33.074.07.05.104.13.104.242 0 .114-.033.198-.1.252-.066.053-.172.079-.316.079a.706.706 0 01-.267-.046 2.384 2.384 0 01-.27-.136.417.417 0 00-.089-.042.208.208 0 00-.078-.014.158.158 0 00-.128.067.236.236 0 00-.053.156c0 .04.007.076.021.107.017.03.043.06.078.085.102.081.223.144.363.189.142.045.29.067.444.067.185 0 .347-.028.487-.085a.713.713 0 00.32-.249.633.633 0 00.114-.377.61.61 0 00-.121-.383z" clip-rule="evenodd" opacity=".5"/>
  <path fill="currentColor" d="M9.272 14.712h-.185c-.476.232-1 .355-1.53.357-.55 0-1.063-.134-1.53-.357h-.185a2.573 2.573 0 00-2.573 2.573v.643c0 .592.48 1.072 1.072 1.072h6.432c.592 0 1.072-.48 1.072-1.072v-.643a2.573 2.573 0 00-2.573-2.573zm-1.715-.715a2.5 2.5 0 100-5.002 2.502 2.502 0 00-.002 5.002h.002z"/>
</svg>
