<svg xmlns="http://www.w3.org/2000/svg" fill="none" viewBox="0 0 25 25">
  <path fill="currentColor" fill-rule="evenodd" d="M8.219 5.94a.482.482 0 01.964 0v.524h1.844V5.94a.482.482 0 11.965 0v.524h1.843V5.94a.482.482 0 01.965 0v.524h1.844V5.94a.482.482 0 11.965 0v3.178h-9.39V5.94z" clip-rule="evenodd" opacity=".5"/>
  <path fill="currentColor" fill-rule="evenodd" d="M7.745 9.118a.5.5 0 00-.5.5v2.444h11.337V9.617a.5.5 0 00-.5-.5H7.745zm4.958 1.063a.5.5 0 00-.5.5v1.38h1.413v-1.38a.5.5 0 00-.5-.5h-.412z" clip-rule="evenodd"/>
  <path fill="currentColor" fill-rule="evenodd" d="M6.87 12.061a.5.5 0 00-.5.5v3.214h5.573v-1.748a.6.6 0 01.6-.6h.733a.6.6 0 01.6.6v1.748h5.58v-3.214a.5.5 0 00-.5-.5H6.872z" clip-rule="evenodd"/>
  <path fill="currentColor" fill-rule="evenodd" d="M5.923 15.745a.5.5 0 00-.5.5v3.712a.5.5 0 00.5.5h5.597v-2.4c0-.22.18-.4.4-.4h1.984a.4.4 0 01.4.4v2.4h5.6a.5.5 0 00.5-.5v-3.712a.5.5 0 00-.5-.5H5.924z" clip-rule="evenodd" opacity=".5"/>
</svg>
