<svg xmlns="http://www.w3.org/2000/svg" fill="none" viewBox="0 0 25 25">
  <path fill="currentColor" d="M21.144 12.18c0 4.958-4.043 9-9 9a8.864 8.864 0 01-3.204-.61l3.509-1.525a.164.164 0 00.152-.153c.077-.076.077-.152.077-.229 0-.076 0-.152-.077-.229-.076-.076-.152 0-.228 0l-1.678-.762s-.077 0-.077-.077V17.367L17.635 8.9c.077-.077.077-.153.077-.23v-.228a.164.164 0 00-.153-.153c-.076 0-.152-.076-.229 0h-2.822s-.076 0-.076-.076v-.152l2.212-3.585c2.67 1.525 4.5 4.424 4.5 7.703z"/>
  <path fill="currentColor" d="M9.017 10.35c-.077.076-.077.152-.077.229 0 .076 0 .152.077.228 0 .077.076.077.152.153.077 0 .153.076.23.076h2.135s.076 0 .076.076v.153l-2.822 5.339c0 .076-.076.076-.076.076h-.153l-1.22-.61c-.077 0-.153-.076-.23-.076-.075 0-.152 0-.228.076-.076.076-.152.076-.152.152v.23l.38 3.203a8.916 8.916 0 01-4.041-7.475c0-4.957 4.042-9 9-9 .38 0 .686 0 1.067.076l-.152.153-3.966 6.94z" opacity=".5"/>
</svg>
