<svg xmlns="http://www.w3.org/2000/svg" fill="none" viewBox="0 0 25 24">
  <path fill="currentColor" fill-rule="evenodd" d="M7.125 3.416a1 1 0 00-1 1v15a1 1 0 001 1h10.75a1 1 0 001-1v-4.51l-1.132 1.132c-.373.373-.865.58-1.378.58a1.946 1.946 0 01-1.378-.58l-1.917-1.916a1.926 1.926 0 010-2.756c.738-.737 2.014-.817 2.776.019l.52.52 2.454-2.456.055-.053V7.58a.5.5 0 00-.148-.355L15.025 3.56a.5.5 0 00-.352-.145H7.125zm11.75 7.393l-2.51 2.51-1.246-1.246c-.335-.383-.958-.383-1.341 0a.926.926 0 000 1.341l1.916 1.917a.946.946 0 00.671.288c.24 0 .48-.096.67-.288l1.84-1.839V10.81z" clip-rule="evenodd" opacity=".5"/>
  <path fill="currentColor" fill-rule="evenodd" d="M16.365 15.619a.946.946 0 01-.67-.288l-1.917-1.916a.926.926 0 010-1.342c.383-.383 1.006-.383 1.341 0l1.246 1.246 3.163-3.163a.926.926 0 011.341 0 .926.926 0 010 1.342l-3.833 3.833a.946.946 0 01-.67.288z" clip-rule="evenodd"/>
</svg>
