<svg xmlns="http://www.w3.org/2000/svg" fill="none" viewBox="0 0 25 25">
  <path fill="currentColor" fill-rule="evenodd" d="M16.045 3.988L13.12 6.913a2 2 0 000 2.828l1.414 1.415a2 2 0 002.828 0l2.925-2.926a5.93 5.93 0 01-1.517 5.76c-1.83 1.83-4.566 2.206-6.791 1.135L6.852 20.25a2 2 0 11-2.828-2.828l5.127-5.127c-1.072-2.224-.696-4.961 1.133-6.79a5.929 5.929 0 015.76-1.518z" clip-rule="evenodd"/>
  <path fill="currentColor" fill-rule="evenodd" d="M16.752 6.11l1.414 1.413a1 1 0 010 1.415l-1.38 1.38a1 1 0 01-1.414 0l-1.414-1.415a1 1 0 010-1.414l1.38-1.38a1 1 0 011.414 0z" clip-rule="evenodd" opacity=".3"/>
</svg>
