<svg xmlns="http://www.w3.org/2000/svg" fill="none" viewBox="0 0 25 25">
  <path fill="currentColor" fill-rule="evenodd" d="M13.967 13.893h.296c.465 0 .912.077 1.329.22v.826a1.186 1.186 0 00-.107-.005h-.322c-.65 0-1.178.528-1.178 1.179v.807c0 1.527.76 2.964 1.979 3.798l-.033.032H6.378a1.715 1.715 0 01-1.715-1.714v-1.029a4.115 4.115 0 014.115-4.114h.296a5.638 5.638 0 002.446.571 5.64 5.64 0 002.447-.571zM15.52 8.75c0 2.21-1.789 4-4 4h-.003a4 4 0 114.003-4z" clip-rule="evenodd" opacity=".5"/>
  <path fill="currentColor" d="M18.378 19.006a1.929 1.929 0 001.928-1.929v-3.214a1.928 1.928 0 10-3.857 0v3.214c0 1.065.863 1.929 1.928 1.929zm3.214-3.215h-.322a.321.321 0 00-.321.322v.964a2.574 2.574 0 01-2.828 2.56c-1.336-.131-2.315-1.332-2.315-2.674v-.85a.321.321 0 00-.321-.322h-.322a.321.321 0 00-.321.322v.807c0 1.8 1.285 3.406 3.053 3.65v.686H16.77a.321.321 0 00-.321.321v.322c0 .177.144.321.321.321h3.215a.321.321 0 00.321-.321v-.322a.321.321 0 00-.321-.321H18.86v-.679a3.54 3.54 0 003.053-3.5v-.964a.321.321 0 00-.321-.322z"/>
</svg>
