<svg xmlns="http://www.w3.org/2000/svg" fill="none" viewBox="0 0 25 25">
  <path fill="currentColor" d="M20.875 5.976h-16a2 2 0 00-2 2v1.755h20V7.976a2 2 0 00-2-2z"/>
  <path fill="currentColor" d="M2.902 11.107h19.973v6.87a2 2 0 01-2 2H4.902a2 2 0 01-2-2v-6.87z" opacity=".5"/>
  <g fill="#fff" clip-path="url(#clip0)">
    <path d="M11.656 17.419h-1.002l.627-3.873h1l-.625 3.873zM15.285 13.641a2.468 2.468 0 00-.898-.165c-.989 0-1.685.527-1.69 1.281-.007.556.5.865.878 1.05.388.19.52.314.52.483-.005.26-.314.379-.602.379-.4 0-.614-.062-.94-.206l-.131-.062-.14.87c.235.106.667.201 1.116.205 1.051 0 1.735-.519 1.743-1.322.004-.441-.264-.779-.84-1.055-.35-.177-.565-.296-.565-.478.004-.164.181-.333.577-.333a1.7 1.7 0 01.745.148l.091.041.136-.836zM16.616 16.047l.4-1.084c-.005.009.082-.226.131-.37l.07.333s.19.927.231 1.12h-.832zm1.236-2.5h-.775c-.239 0-.42.07-.523.32l-1.487 3.551h1.05l.21-.58h1.286l.12.58h.926l-.807-3.872zM9.818 13.546l-.98 2.64-.107-.535c-.182-.618-.75-1.289-1.385-1.623l.898 3.386h1.06l1.573-3.868H9.818z"/>
    <path d="M7.927 13.546h-1.61l-.017.079c1.256.32 2.089 1.095 2.43 2.027l-.35-1.78c-.057-.247-.234-.317-.453-.326z"/>
  </g>
  <defs>
    <clipPath id="clip0">
      <path fill="#fff" d="M0 0h12.36v4H0z" transform="translate(6.3 13.476)"/>
    </clipPath>
  </defs>
</svg>
