<svg xmlns="http://www.w3.org/2000/svg" fill="none" viewBox="0 0 26 25">
  <path fill="currentColor" fill-rule="evenodd" d="M6.47 5.18h13a1.5 1.5 0 011.5 1.5v7.096H17.5a1.635 1.635 0 00-1.627 1.627v3.777H6.47a1.5 1.5 0 01-1.5-1.5v-11a1.5 1.5 0 011.5-1.5zm2.126 4a.376.376 0 00.375-.375v-1.25a.376.376 0 00-.375-.375h-1.25a.376.376 0 00-.375.375v1.25c0 .206.169.375.375.375h1.25zm10 0a.376.376 0 00.375-.375v-1.25a.376.376 0 00-.375-.375h-7.75a.376.376 0 00-.375.375v1.25c0 .206.169.375.375.375h7.75z" clip-rule="evenodd" opacity=".5"/>
  <path fill="currentColor" d="M22.294 15.746l-1.381 1.381 2.365 2.365a.478.478 0 010 .676l-1.014 1.013a.478.478 0 01-.676 0l-2.365-2.365-1.38 1.381a.478.478 0 01-.816-.337v-4.452a.48.48 0 01.478-.477h4.45c.427 0 .639.515.339.815z"/>
</svg>
