<svg xmlns="http://www.w3.org/2000/svg" fill="none" viewBox="0 0 25 25">
  <path fill="currentColor" fill-rule="evenodd" d="M14.039 15.341v-.005a5.085 5.085 0 003.916-5.42l-.56-6.26a.558.558 0 00-.553-.512H8.985a.557.557 0 00-.552.511l-.56 6.262a5.085 5.085 0 003.916 5.42v.004h2.25z" clip-rule="evenodd" opacity=".5"/>
  <path fill="currentColor" fill-rule="evenodd" d="M11.789 16.341v3.115h-1.407c-.776 0-1.406.63-1.406 1.407 0 .155.126.28.281.28h7.313a.281.281 0 00.281-.28c0-.777-.63-1.407-1.406-1.407h-1.406v-3.115h-2.25zm0-1h2.25-2.25z" clip-rule="evenodd"/>
</svg>
